# xmcd
#
# Track frame offsets:
#	150
#	2402
#	11613
#	20614
#	32657
#	46115
#	59157
#	70201
#	90866
#	102152
#	115884
#	128917
#	136668
#	150305
#	164776
#	174325
#	185120
#	196687
#	206718
#	219525
#	232481
#	253044
#	265710
#	277422
#	297624
#
# Disc length: 4136 seconds
#
# Revision: 1
# Processed by: cddbd v1.5.2PL0 Copyright (c) Steve Scherf et al.
# Submitted via: audiograbber 1.83.01
#
DISCID=70102619
DTITLE=BlueRidge - Live At Everett's Music Barn October 22nd 2005
DYEAR=2005
DGENRE=Bluegrass
TTITLE0=Randall's Introduction
TTITLE1=Sit and Sing The Blues
TTITLE2=Vandiver
TTITLE3=Back To Cana
TTITLE4=Highway Of Sorrow
TTITLE5=Cherokee
TTITLE6=Do What You Want To Do
TTITLE7=Gospel Medley
TTITLE8=Ponderosa
TTITLE9=Don't You Want To Go There
TTITLE10=Brand New Tennessee Waltz
TTITLE11=Panhandle Rag
TTITLE12=I'm Going Up
TTITLE13=Golden Slippers - Wild Fiddler's Rag
TTITLE14=The Story Of A Rounder
TTITLE15=I'm Goin' Honky Tonkin'
TTITLE16=Picture A Tear
TTITLE17=Jesse James
TTITLE18=10 Plagues
TTITLE19=Shotgun
TTITLE20=Carroll County Blues
TTITLE21=Lead Me Not
TTITLE22=What If
TTITLE23=Rambler's Blues
TTITLE24=Rawhide
EXTD=
EXTT0=
EXTT1=
EXTT2=
EXTT3=
EXTT4=
EXTT5=
EXTT6=
EXTT7=
EXTT8=
EXTT9=
EXTT10=
EXTT11=
EXTT12=
EXTT13=
EXTT14=
EXTT15=
EXTT16=
EXTT17=
EXTT18=
EXTT19=
EXTT20=
EXTT21=
EXTT22=
EXTT23=
EXTT24=
PLAYORDER=
